<?xml version="1.0" encoding="utf-8"?>
<!-- Generator: Adobe Illustrator 18.0.0, SVG Export Plug-In . SVG Version: 6.00 Build 0)  -->
<!DOCTYPE svg PUBLIC "-//W3C//DTD SVG 1.1//EN" "http://www.w3.org/Graphics/SVG/1.1/DTD/svg11.dtd">
<svg version="1.1" id="Camada_1" xmlns="http://www.w3.org/2000/svg" xmlns:xlink="http://www.w3.org/1999/xlink" x="0px" y="0px"
	 viewBox="0 0 269.7 31" enable-background="new 0 0 269.7 31" xml:space="preserve">
<path fill-rule="evenodd" clip-rule="evenodd" fill="#00498D" d="M29.7,0H240c5.5,0,12.5,3.9,15.7,9l14,22H0L14,9
	C17.2,3.9,24.2,0,29.7,0z"/>
<path fill-rule="evenodd" clip-rule="evenodd" fill="#FFFFFF" d="M101.6,24c-0.2,0-0.5-0.1-0.7-0.3l-4.6-4.9c-0.4-0.4-0.4-1,0-1.4
	l4.6-4.9c0.4-0.4,1-0.4,1.4,0c0.4,0.4,0.4,1,0,1.4l-4,4.2l4,4.2c0.4,0.4,0.4,1,0,1.4C102.1,23.9,101.9,24,101.6,24z"/>
<g>
	<path fill="#FFFFFF" d="M122.2,14.3l1.9,5.4c0.3,0.9,0.6,1.7,0.8,2.5h0.1c0.2-0.8,0.5-1.6,0.8-2.5l1.9-5.4h1.8l-3.8,9.7H124
		l-3.7-9.7H122.2z"/>
	<path fill="#FFFFFF" d="M139.7,19.1c0,3.6-2.5,5.1-4.8,5.1c-2.6,0-4.6-1.9-4.6-5c0-3.2,2.1-5.1,4.8-5.1
		C137.8,14.1,139.7,16.1,139.7,19.1z M132,19.2c0,2.1,1.2,3.7,2.9,3.7c1.7,0,2.9-1.6,2.9-3.8c0-1.6-0.8-3.7-2.9-3.7
		C132.9,15.4,132,17.3,132,19.2z"/>
	<path fill="#FFFFFF" d="M141.9,9.8h1.8V24h-1.8V9.8z"/>
	<path fill="#FFFFFF" d="M148.8,11.5v2.8h2.5v1.3h-2.5v5.2c0,1.2,0.3,1.9,1.3,1.9c0.5,0,0.8-0.1,1-0.1l0.1,1.3
		c-0.3,0.1-0.9,0.2-1.6,0.2c-0.8,0-1.5-0.3-1.9-0.7c-0.5-0.5-0.7-1.4-0.7-2.5v-5.3h-1.5v-1.3h1.5V12L148.8,11.5z"/>
	<path fill="#FFFFFF" d="M158.6,24l-0.1-1.2h-0.1c-0.5,0.8-1.6,1.4-3,1.4c-2,0-3-1.4-3-2.8c0-2.3,2.1-3.6,5.8-3.6v-0.2
		c0-0.8-0.2-2.2-2.2-2.2c-0.9,0-1.8,0.3-2.5,0.7l-0.4-1.2c0.8-0.5,2-0.9,3.2-0.9c3,0,3.7,2,3.7,4v3.6c0,0.8,0,1.7,0.2,2.3H158.6z
		 M158.4,19.1c-1.9,0-4.1,0.3-4.1,2.2c0,1.1,0.8,1.7,1.7,1.7c1.3,0,2.1-0.8,2.3-1.6c0.1-0.2,0.1-0.4,0.1-0.6V19.1z"/>
	<path fill="#FFFFFF" d="M162.9,17.3c0-1.1,0-2.1-0.1-3h1.5l0.1,1.9h0.1c0.4-1.3,1.5-2.1,2.7-2.1c0.2,0,0.3,0,0.5,0.1v1.7
		c-0.2,0-0.4-0.1-0.6-0.1c-1.2,0-2.1,0.9-2.4,2.3c0,0.2-0.1,0.5-0.1,0.8V24h-1.7V17.3z"/>
</g>
</svg>
