<?xml version="1.0" encoding="utf-8"?>
<!-- Generator: Adobe Illustrator 18.0.0, SVG Export Plug-In . SVG Version: 6.00 Build 0)  -->
<!DOCTYPE svg PUBLIC "-//W3C//DTD SVG 1.1//EN" "http://www.w3.org/Graphics/SVG/1.1/DTD/svg11.dtd">
<svg version="1.1" id="Camada_1" xmlns="http://www.w3.org/2000/svg" xmlns:xlink="http://www.w3.org/1999/xlink" x="0px" y="0px"
	 viewBox="0 16.4 44 11" enable-background="new 0 16.4 44 11" xml:space="preserve">
<path fill="#FFFFFF" d="M22.7,25c0.5,0.3,1.1,0.6,1.9,0.6c1,0,1.9-0.6,1.9-1.7c0-0.7-0.4-1.1-1.3-1.7c-1.1-0.6-1.8-1.3-1.8-2.3
	c0-1.6,1.4-2.6,3-2.6c0.8,0,1.5,0.3,1.8,0.5l-0.4,0.9c-0.3-0.2-0.8-0.4-1.5-0.4c-1.1,0-1.7,0.7-1.7,1.4c0,0.7,0.4,1.1,1.4,1.6
	c1.1,0.6,1.7,1.3,1.7,2.4c0,1.5-1.2,2.7-3.2,2.7c-0.9,0-1.8-0.3-2.1-0.6L22.7,25z"/>
<path fill="#FFFFFF" d="M28,26.4l1.2-6.4h1.1l-1.2,6.4H28z M29.4,18.2c0-0.4,0.3-0.7,0.7-0.7c0.4,0,0.6,0.3,0.6,0.7
	c0,0.4-0.3,0.7-0.7,0.7C29.7,18.9,29.4,18.6,29.4,18.2"/>
<path fill="#FFFFFF" d="M33.6,18.3L33.2,20h1.5l-0.2,0.8h-1.5l-0.6,3.1c-0.1,0.4-0.1,0.7-0.1,1c0,0.4,0.2,0.6,0.6,0.6
	c0.2,0,0.4,0,0.5,0l-0.1,0.8c-0.2,0.1-0.5,0.1-0.8,0.1c-1,0-1.3-0.6-1.3-1.2c0-0.4,0-0.7,0.1-1.2l0.6-3.2h-0.9l0.2-0.8h0.9l0.3-1.4
	L33.6,18.3z"/>
<path fill="#FFFFFF" d="M38.7,26c-0.5,0.3-1.2,0.5-2.1,0.5c-1.7,0-2.4-1.1-2.4-2.5c0-1.9,1.4-4.1,3.5-4.1c1.2,0,1.9,0.7,1.9,1.6
	c0,1.7-1.9,2.1-4.2,2.1c-0.1,0.3,0,0.9,0.1,1.2c0.2,0.6,0.8,0.8,1.4,0.8c0.7,0,1.3-0.2,1.7-0.4L38.7,26z M37.5,20.7
	c-1,0-1.8,1-2.1,2c1.7,0,3-0.2,3-1.2C38.5,21,38.1,20.7,37.5,20.7"/>
<path fill="#FFFFFF" d="M39.8,25.2c0.3,0.2,0.8,0.4,1.4,0.4c0.7,0,1.2-0.5,1.2-1c0-0.5-0.2-0.8-0.9-1.2c-0.7-0.4-1.1-1-1.1-1.6
	c0-1.1,1-2,2.3-2c0.6,0,1.1,0.2,1.3,0.3L43.7,21c-0.2-0.1-0.6-0.3-1.1-0.3c-0.7,0-1.1,0.4-1.1,1c0,0.5,0.3,0.7,0.9,1.1
	c0.7,0.4,1.2,1,1.2,1.7c0,1.3-1.1,2.1-2.4,2.1c-0.7,0-1.3-0.2-1.6-0.4L39.8,25.2z"/>
<path fill="#FFFFFF" d="M8.6,26.3c-0.9,0.3-2.3,0.6-3.7,0.6c-1.3,0-2.5-0.3-3.5-1C0.6,25.3,0,24.2,0,22.7c0-1.8,0.8-3.2,2.1-4.2
	c1.2-0.9,2.8-1.4,4.7-1.4c1.4,0,2.5,0.3,3,0.5L9,19.7c-0.5-0.2-1.4-0.4-2.4-0.4c-0.9,0-1.8,0.2-2.5,0.6c-0.8,0.5-1.4,1.4-1.4,2.6
	c0,1.7,1.2,2.3,2.6,2.3c0.5,0,0.8-0.1,1-0.2l0.3-1.5H5.3l0.4-2h4L8.6,26.3z"/>
<path fill="#FFFFFF" d="M13.3,26.9c-2.6,0-4.5-1.6-4.5-4.3c0-1.7,0.6-3.1,1.7-4c1-1,2.5-1.5,4.1-1.5c2.6,0,4.5,1.5,4.5,4.4
	c0,1.6-0.6,3-1.6,4C16.4,26.4,14.9,27,13.3,26.9L13.3,26.9L13.3,26.9z M13.6,24.9c0.6,0,1.2-0.3,1.6-0.7c0.6-0.6,1-1.6,1-2.6
	c0-1.4-0.5-2.4-2-2.4c-0.7,0-1.2,0.3-1.7,0.7c-0.6,0.6-1,1.6-1,2.6C11.5,24,12.2,24.9,13.6,24.9L13.6,24.9z"/>
<path fill="#FFFFFF" d="M19.9,26.9c-0.8,0-1.3-0.6-1.3-1.3c0-0.9,0.7-1.7,1.7-1.7c0.8,0,1.4,0.6,1.4,1.4
	C21.6,26.3,20.9,27,19.9,26.9L19.9,26.9L19.9,26.9z M19.5,23.5l0.8-6.3h2.6l-1.6,6.3H19.5z"/>
</svg>
