<?xml version="1.0" encoding="utf-8"?>
<!-- Generator: Adobe Illustrator 18.0.0, SVG Export Plug-In . SVG Version: 6.00 Build 0)  -->
<!DOCTYPE svg PUBLIC "-//W3C//DTD SVG 1.1//EN" "http://www.w3.org/Graphics/SVG/1.1/DTD/svg11.dtd">
<svg version="1.1" id="Camada_1" xmlns="http://www.w3.org/2000/svg" xmlns:xlink="http://www.w3.org/1999/xlink" x="0px" y="0px"
	 viewBox="0 0 7.7 12.6" enable-background="new 0 0 7.7 12.6" xml:space="preserve">
<path fill-rule="evenodd" clip-rule="evenodd" fill="#195288" d="M0.4,2.5c-0.6-0.6-0.6-1.5,0-2.1c0.6-0.6,1.5-0.6,2.1,0l4.8,4.8
	c0,0,0,0,0,0c0.1,0.1,0.2,0.3,0.3,0.5c0,0,0,0.1,0,0.1c0,0.1,0.1,0.3,0.1,0.4c0,0.2,0,0.3-0.1,0.4c0,0,0,0.1,0,0.1
	C7.6,7,7.4,7.2,7.3,7.3c0,0,0,0,0,0l-4.8,4.8c-0.6,0.6-1.5,0.6-2.1,0c-0.6-0.6-0.6-1.5,0-2.1l3.8-3.8L0.4,2.5z"/>
</svg>
