<?xml version="1.0" encoding="utf-8"?>
<!-- Generator: Adobe Illustrator 18.0.0, SVG Export Plug-In . SVG Version: 6.00 Build 0)  -->
<!DOCTYPE svg PUBLIC "-//W3C//DTD SVG 1.1//EN" "http://www.w3.org/Graphics/SVG/1.1/DTD/svg11.dtd">
<svg version="1.1" id="Camada_1" xmlns="http://www.w3.org/2000/svg" xmlns:xlink="http://www.w3.org/1999/xlink" x="0px" y="0px"
	 viewBox="0 0 7.7 12.6" enable-background="new 0 0 7.7 12.6" xml:space="preserve">
<path fill-rule="evenodd" clip-rule="evenodd" fill="#195288" d="M7.3,2.5c0.6-0.6,0.6-1.5,0-2.1c-0.6-0.6-1.5-0.6-2.1,0L0.4,5.2
	c0,0,0,0,0,0C0.3,5.4,0.2,5.5,0.1,5.7c0,0,0,0.1,0,0.1C0,6,0,6.1,0,6.3c0,0.2,0,0.3,0.1,0.4c0,0,0,0.1,0,0.1C0.2,7,0.3,7.2,0.4,7.3
	c0,0,0,0,0,0l4.8,4.8c0.6,0.6,1.5,0.6,2.1,0c0.6-0.6,0.6-1.5,0-2.1L3.5,6.3L7.3,2.5z"/>
</svg>
