<?xml version="1.0" encoding="utf-8"?>
<!-- Generator: Adobe Illustrator 18.0.0, SVG Export Plug-In . SVG Version: 6.00 Build 0)  -->
<!DOCTYPE svg PUBLIC "-//W3C//DTD SVG 1.1//EN" "http://www.w3.org/Graphics/SVG/1.1/DTD/svg11.dtd">
<svg version="1.1" id="Camada_1" xmlns="http://www.w3.org/2000/svg" xmlns:xlink="http://www.w3.org/1999/xlink" x="0px" y="0px"
	 viewBox="0 0 64 30" enable-background="new 0 0 64 30" xml:space="preserve">
<path fill="#7098BD" d="M4,30.1V6c0-1.1,0.9-2,2-2h40v8h0c0,3.3,2.7,6,6,6h8v12c1.3,0,2.7,0,4,0V16c0-1.1-0.4-2.1-1.2-2.8l-12-12
	C50.1,0.4,49.1,0,48,0H6C2.7,0,0,2.7,0,6l0,24.1C1.4,30,2.7,30,4,30.1z M48,12V4l12,12h-8C49.8,16,48,14.2,48,12L48,12z"/>
<path fill="#7098BD" d="M31,14h10c0.6,0,1-0.4,1-1c0-0.6-0.4-1-1-1H31c-0.6,0-1,0.4-1,1C30,13.6,30.4,14,31,14z"/>
<path fill="#7098BD" d="M31,20h10c0.6,0,1-0.4,1-1c0-0.6-0.4-1-1-1H31c-0.6,0-1,0.4-1,1C30,19.6,30.4,20,31,20z"/>
<path fill="#7098BD" d="M30,25c0,0.6,0.4,1,1,1h24c0.6,0,1-0.4,1-1c0-0.6-0.4-1-1-1H31C30.4,24,30,24.4,30,25z"/>
<path fill="#7098BD" d="M10,26h14c1.1,0,2-0.9,2-2V12c0-1.1-0.9-2-2-2H10c-1.1,0-2,0.9-2,2v12C8,25.1,8.9,26,10,26z M12,14h10v8H12
	V14z"/>
</svg>
