<?xml version="1.0" encoding="utf-8"?>
<!-- Generator: Adobe Illustrator 18.0.0, SVG Export Plug-In . SVG Version: 6.00 Build 0)  -->
<!DOCTYPE svg PUBLIC "-//W3C//DTD SVG 1.1//EN" "http://www.w3.org/Graphics/SVG/1.1/DTD/svg11.dtd">
<svg version="1.1" id="Camada_1" xmlns="http://www.w3.org/2000/svg" xmlns:xlink="http://www.w3.org/1999/xlink" x="0px" y="0px"
	 viewBox="0 0 233.5 27.5" enable-background="new 0 0 233.5 27.5" xml:space="preserve">
<path fill="#0D4687" d="M21.5,8.2h-2.6c0,0-0.8,0-1.3-1.3c-0.3-0.6-0.6-1.2-1.3-1.2H11c-0.7,0-1,0.6-1.3,1.2
	C9.2,8.2,8.4,8.2,8.4,8.2H7.1c0-0.7-0.6-1.3-1.3-1.3H4.5c-0.7,0-1.3,0.6-1.3,1.3c-0.7,0-1.3,0.6-1.3,1.3v10c0,0.7,0.6,1.2,1.3,1.2
	h18.4c0.7,0,1.3-0.6,1.3-1.2v-10C22.8,8.7,22.2,8.2,21.5,8.2z M21.5,19.4H3.1v-5h6c0.3,2.1,2.2,3.7,4.5,3.7c2.4,0,4.3-1.7,4.5-3.9
	h3.3V19.4z M10.4,13.8c0-1.7,1.5-3.1,3.3-3.1c1.8,0,3.3,1.4,3.3,3.1c0,1.7-1.5,3.1-3.3,3.1C11.8,16.9,10.4,15.5,10.4,13.8z
	 M18.2,13.2C17.9,11,16,9.4,13.6,9.4c-2.3,0-4.2,1.6-4.5,3.7h-6V9.4h5.3c0.8,0,1.9-0.5,2.5-2C11,7.1,11.1,7,11.2,6.9h5
	c0.1,0.1,0.2,0.4,0.2,0.5c0.8,1.9,2.2,2,2.5,2h2.6v3.7H18.2z M4.5,11.3c0,0.3,0.3,0.6,0.7,0.6c0.4,0,0.7-0.3,0.7-0.6
	c0-0.3-0.3-0.6-0.7-0.6C4.8,10.7,4.5,11,4.5,11.3z"/>
<g>
	<path fill="#00458A" d="M49.7,21c-1.2,0.4-3.7,1.1-6.5,1.1c-3.2,0-5.9-0.7-8-2.5c-1.8-1.6-3-4.2-3-7.1c0-5.7,4.4-9.9,11.5-9.9
		c2.5,0,4.4,0.5,5.3,0.9l-0.7,2c-1.1-0.5-2.6-0.8-4.7-0.8c-5.2,0-8.6,2.9-8.6,7.7c0,4.9,3.3,7.7,8.2,7.7c1.8,0,3-0.2,3.7-0.5v-5.7
		h-4.3v-2h7V21z"/>
	<path fill="#00458A" d="M62.5,21.9l-0.2-1.7h-0.1c-0.9,1.1-2.5,2-4.7,2c-3.1,0-4.7-2-4.7-4c0-3.3,3.3-5.2,9.2-5.1v-0.3
		c0-1.1-0.3-3.2-3.5-3.2c-1.4,0-2.9,0.4-4,1L53.9,9c1.3-0.7,3.1-1.2,5-1.2c4.7,0,5.8,2.9,5.8,5.6v5.2c0,1.2,0.1,2.4,0.3,3.3H62.5z
		 M62.1,14.9c-3-0.1-6.5,0.4-6.5,3.1c0,1.6,1.2,2.4,2.6,2.4c2,0,3.3-1.1,3.7-2.3c0.1-0.3,0.2-0.5,0.2-0.8V14.9z"/>
	<path fill="#00458A" d="M69.3,1.7h2.8v20.2h-2.8V1.7z"/>
	<path fill="#00458A" d="M78.3,15.5c0.1,3.4,2.5,4.8,5.3,4.8c2,0,3.2-0.3,4.2-0.7l0.5,1.8c-1,0.4-2.7,0.9-5.1,0.9
		c-4.7,0-7.5-2.8-7.5-6.9s2.7-7.4,7.2-7.4c5,0,6.3,4,6.3,6.5c0,0.5-0.1,0.9-0.1,1.2H78.3z M86.5,13.7c0-1.6-0.7-4.1-3.9-4.1
		c-2.8,0-4,2.3-4.3,4.1H86.5z"/>
	<path fill="#00458A" d="M92.6,12.4c0-1.6,0-3-0.1-4.3h2.4l0.1,2.7h0.1c0.7-1.8,2.4-3,4.2-3c0.3,0,0.5,0,0.8,0.1v2.4
		c-0.3-0.1-0.6-0.1-0.9-0.1c-2,0-3.4,1.3-3.7,3.2c-0.1,0.3-0.1,0.7-0.1,1.2v7.3h-2.8V12.4z"/>
	<path fill="#00458A" d="M106.2,4.2c0,0.9-0.7,1.5-1.8,1.5c-1,0-1.7-0.7-1.7-1.5c0-0.9,0.7-1.6,1.7-1.6
		C105.5,2.7,106.2,3.4,106.2,4.2z M103.1,21.9V8.1h2.8v13.8H103.1z"/>
	<path fill="#00458A" d="M118.9,21.9l-0.2-1.7h-0.1c-0.9,1.1-2.5,2-4.7,2c-3.1,0-4.7-2-4.7-4c0-3.3,3.3-5.2,9.2-5.1v-0.3
		c0-1.1-0.3-3.2-3.5-3.2c-1.4,0-2.9,0.4-4,1L110.4,9c1.3-0.7,3.1-1.2,5-1.2c4.7,0,5.8,2.9,5.8,5.6v5.2c0,1.2,0.1,2.4,0.3,3.3H118.9z
		 M118.5,14.9c-3-0.1-6.5,0.4-6.5,3.1c0,1.6,1.2,2.4,2.6,2.4c2,0,3.3-1.1,3.7-2.3c0.1-0.3,0.2-0.5,0.2-0.8V14.9z"/>
	<path fill="#1E8653" d="M138.2,8.4v11.1c0,0.8,0,1.7,0.1,2.4h-1.7l-0.1-1.6h0c-0.6,1-1.8,1.8-3.5,1.8c-2.5,0-4.4-1.9-4.4-4.7
		c0-3.1,2.1-4.9,4.6-4.9c1.6,0,2.6,0.7,3.1,1.4h0V8.4H138.2z M136.4,16.4c0-0.2,0-0.5-0.1-0.7c-0.3-1.1-1.3-1.9-2.7-1.9
		c-1.9,0-3.1,1.5-3.1,3.5c0,1.9,1,3.4,3,3.4c1.2,0,2.4-0.7,2.7-2c0.1-0.2,0.1-0.5,0.1-0.7V16.4z"/>
	<path fill="#1E8653" d="M142.3,17.6c0,2.3,1.6,3.2,3.5,3.2c1.3,0,2.1-0.2,2.8-0.5l0.3,1.2c-0.7,0.3-1.8,0.6-3.4,0.6
		c-3.1,0-5-1.9-5-4.6c0-2.8,1.8-5,4.8-5c3.3,0,4.2,2.6,4.2,4.3c0,0.3,0,0.6-0.1,0.8H142.3z M147.8,16.4c0-1.1-0.5-2.7-2.6-2.7
		c-1.9,0-2.7,1.6-2.8,2.7H147.8z"/>
	<path fill="#1E8653" d="M158.2,9.1v12.8h-1.8V9.1H158.2z"/>
	<path fill="#1E8653" d="M161.6,15.2c0-0.9,0-1.7-0.1-2.5h1.6l0.1,1.5h0.1c0.6-0.9,1.5-1.7,3.2-1.7c1.4,0,2.4,0.8,2.9,1.8h0
		c0.3-0.5,0.7-0.9,1.1-1.2c0.6-0.4,1.3-0.6,2.3-0.6c1.3,0,3.4,0.8,3.4,4v5.4h-1.8v-5.2c0-1.8-0.7-2.8-2.2-2.8
		c-1.1,0-1.9,0.7-2.2,1.5c-0.1,0.2-0.1,0.5-0.1,0.8v5.7H168v-5.5c0-1.5-0.7-2.5-2.1-2.5c-1.2,0-2,0.8-2.3,1.7
		c-0.1,0.2-0.1,0.5-0.1,0.8v5.5h-1.8V15.2z"/>
	<path fill="#1E8653" d="M184.8,21.9l-0.1-1.2h-0.1c-0.6,0.7-1.7,1.4-3.1,1.4c-2.1,0-3.1-1.3-3.1-2.6c0-2.2,2.2-3.4,6.1-3.4v-0.2
		c0-0.8-0.2-2.1-2.3-2.1c-0.9,0-1.9,0.3-2.7,0.7l-0.4-1.1c0.8-0.5,2.1-0.8,3.4-0.8c3.1,0,3.9,1.9,3.9,3.8v3.4c0,0.8,0,1.6,0.2,2.2
		H184.8z M184.5,17.2c-2,0-4.3,0.3-4.3,2.1c0,1.1,0.8,1.6,1.8,1.6c1.3,0,2.2-0.8,2.5-1.5c0.1-0.2,0.1-0.4,0.1-0.5V17.2z"/>
	<path fill="#1E8653" d="M198.1,12.7c0,0.7-0.1,1.4-0.1,2.5v5.3c0,2.1-0.5,3.4-1.5,4.2c-1,0.8-2.4,1.1-3.7,1.1
		c-1.2,0-2.6-0.3-3.4-0.8l0.5-1.3c0.7,0.4,1.7,0.7,3,0.7c1.9,0,3.3-0.9,3.3-3.2v-1h0c-0.6,0.9-1.7,1.5-3.2,1.5
		c-2.5,0-4.3-1.9-4.3-4.5c0-3.1,2.3-4.9,4.6-4.9c1.8,0,2.7,0.8,3.2,1.6h0l0.1-1.4H198.1z M196.2,16.3c0-0.3,0-0.5-0.1-0.8
		c-0.3-1-1.2-1.8-2.6-1.8c-1.8,0-3,1.3-3,3.5c0,1.8,1,3.3,3,3.3c1.1,0,2.2-0.6,2.6-1.7c0.1-0.3,0.1-0.6,0.1-0.9V16.3z"/>
	<path fill="#1E8653" d="M202.1,17.6c0,2.3,1.6,3.2,3.5,3.2c1.3,0,2.1-0.2,2.8-0.5l0.3,1.2c-0.7,0.3-1.8,0.6-3.4,0.6
		c-3.1,0-5-1.9-5-4.6c0-2.8,1.8-5,4.8-5c3.3,0,4.2,2.6,4.2,4.3c0,0.3,0,0.6-0.1,0.8H202.1z M207.6,16.4c0-1.1-0.5-2.7-2.6-2.7
		c-1.9,0-2.7,1.6-2.8,2.7H207.6z"/>
	<path fill="#1E8653" d="M211.7,15.2c0-0.9,0-1.7-0.1-2.5h1.6l0.1,1.5h0c0.5-0.9,1.7-1.7,3.4-1.7c1.4,0,3.6,0.8,3.6,3.9v5.5h-1.9
		v-5.3c0-1.5-0.6-2.7-2.4-2.7c-1.2,0-2.2,0.8-2.5,1.7c-0.1,0.2-0.1,0.5-0.1,0.8v5.5h-1.9V15.2z"/>
	<path fill="#1E8653" d="M223.1,20.2c0.5,0.3,1.5,0.7,2.4,0.7c1.3,0,2-0.6,2-1.4c0-0.8-0.5-1.2-1.9-1.7c-1.8-0.6-2.7-1.5-2.7-2.6
		c0-1.5,1.3-2.7,3.5-2.7c1,0,1.9,0.3,2.5,0.6l-0.5,1.2c-0.4-0.2-1.1-0.5-2.1-0.5c-1.1,0-1.7,0.6-1.7,1.3c0,0.8,0.6,1.1,1.9,1.6
		c1.8,0.6,2.7,1.4,2.7,2.8c0,1.6-1.4,2.8-3.8,2.8c-1.1,0-2.2-0.2-2.9-0.6L223.1,20.2z"/>
</g>
</svg>
