<?xml version="1.0" encoding="utf-8"?>
<!-- Generator: Adobe Illustrator 18.0.0, SVG Export Plug-In . SVG Version: 6.00 Build 0)  -->
<!DOCTYPE svg PUBLIC "-//W3C//DTD SVG 1.1//EN" "http://www.w3.org/Graphics/SVG/1.1/DTD/svg11.dtd">
<svg version="1.1" id="Camada_1" xmlns="http://www.w3.org/2000/svg" xmlns:xlink="http://www.w3.org/1999/xlink" x="0px" y="0px"
	 viewBox="0 0 163.7 61.3" enable-background="new 0 0 163.7 61.3" xml:space="preserve">
<path fill="#3161A1" d="M160.8,16.1c-0.2-0.8-0.6-1.6-0.9-2.3C156.3,5.1,148.4,2,142,2c-8.6,0-18,5.8-19.2,17.7v2.4
	c0,0.1,0,1,0.1,1.5c0.7,5.7,5.2,11.7,8.5,17.4c3.6,6.1,7.3,12.1,11,18c2.3-3.9,4.5-7.9,6.7-11.7c0.6-1.1,1.3-2.2,1.9-3.3
	c0.4-0.7,1.2-1.4,1.5-2.1c3.6-6.6,9.3-13.2,9.3-19.8v-2.7C161.7,18.8,160.9,16.3,160.8,16.1z M142.1,28.4c-2.5,0-5.3-1.3-6.6-4.8
	c-0.2-0.6-0.2-1.7-0.2-1.8v-1.6c0-4.5,3.8-6.5,7-6.5c4,0,7.1,3.2,7.1,7.3C149.5,25.1,146.2,28.4,142.1,28.4z"/>
<g>
	<path fill="#00458A" d="M9.6,11.5H4.3v5.5h5.9v1.6H2.5V3.4h7.3v1.6H4.3v4.8h5.3V11.5z"/>
	<path fill="#00458A" d="M12.4,10.6c0-1.1,0-2-0.1-2.9h1.6L14,9.5h0c0.5-1,1.6-2,3.2-2c1.3,0,3.4,0.9,3.4,4.6v6.5h-1.8v-6.3
		c0-1.8-0.6-3.2-2.3-3.2c-1.2,0-2.1,0.9-2.4,2c-0.1,0.2-0.1,0.6-0.1,0.9v6.5h-1.8V10.6z"/>
	<path fill="#00458A" d="M30.5,18.2c-0.5,0.3-1.5,0.6-2.8,0.6c-2.9,0-4.9-2.2-4.9-5.6c0-3.4,2.1-5.8,5.2-5.8c1,0,2,0.3,2.5,0.6
		l-0.4,1.5C29.7,9.3,29,9,28.1,9c-2.2,0-3.4,1.8-3.4,4.1c0,2.5,1.4,4.1,3.4,4.1c1,0,1.7-0.3,2.2-0.5L30.5,18.2z"/>
	<path fill="#00458A" d="M41.3,13c0,4-2.5,5.8-4.9,5.8c-2.6,0-4.7-2.2-4.7-5.6c0-3.6,2.1-5.8,4.8-5.8C39.4,7.4,41.3,9.7,41.3,13z
		 M33.5,13.2c0,2.4,1.2,4.2,3,4.2c1.7,0,3-1.8,3-4.2c0-1.8-0.8-4.2-2.9-4.2C34.4,8.9,33.5,11.1,33.5,13.2z"/>
	<path fill="#00458A" d="M43.5,10.6c0-1.1,0-2-0.1-2.9H45l0.1,1.8h0c0.5-1,1.6-2,3.2-2c1.3,0,3.4,0.9,3.4,4.6v6.5H50v-6.3
		c0-1.8-0.6-3.2-2.3-3.2c-1.2,0-2.1,0.9-2.4,2c-0.1,0.2-0.1,0.6-0.1,0.9v6.5h-1.8V10.6z"/>
	<path fill="#00458A" d="M56.7,4.6v3.1h2.5v1.5h-2.5v5.9c0,1.4,0.3,2.1,1.3,2.1c0.5,0,0.8-0.1,1-0.1l0.1,1.5
		c-0.3,0.2-0.9,0.3-1.6,0.3c-0.8,0-1.5-0.3-1.9-0.8c-0.5-0.6-0.7-1.6-0.7-2.8V9.2h-1.5V7.7H55V5.1L56.7,4.6z"/>
	<path fill="#00458A" d="M61.2,11.1c0-1.3,0-2.4-0.1-3.4h1.5l0.1,2.1h0.1c0.4-1.5,1.5-2.4,2.7-2.4c0.2,0,0.3,0,0.5,0.1v1.9
		c-0.2,0-0.4-0.1-0.6-0.1c-1.2,0-2.1,1.1-2.4,2.5c0,0.3-0.1,0.6-0.1,0.9v5.8h-1.8V11.1z"/>
	<path fill="#00458A" d="M68.6,13.5c0,2.7,1.6,3.8,3.3,3.8c1.3,0,2-0.2,2.7-0.6l0.3,1.4c-0.6,0.3-1.7,0.7-3.2,0.7
		c-3,0-4.8-2.2-4.8-5.5s1.7-5.9,4.6-5.9c3.2,0,4,3.1,4,5.1c0,0.4,0,0.7-0.1,0.9H68.6z M73.8,12.1c0-1.3-0.5-3.2-2.5-3.2
		c-1.8,0-2.6,1.8-2.7,3.2H73.8z"/>
	<path fill="#00458A" d="M77.1,15v-1.5H82V15H77.1z"/>
	<path fill="#00458A" d="M84.3,10.6c0-1.1,0-2-0.1-2.9h1.6l0.1,1.8h0c0.5-1,1.6-2,3.2-2c1.3,0,3.4,0.9,3.4,4.6v6.5h-1.8v-6.3
		c0-1.8-0.6-3.2-2.3-3.2c-1.2,0-2.1,0.9-2.4,2c-0.1,0.2-0.1,0.6-0.1,0.9v6.5h-1.8V10.6z"/>
	<path fill="#00458A" d="M104.3,13c0,4-2.5,5.8-4.9,5.8c-2.6,0-4.7-2.2-4.7-5.6c0-3.6,2.1-5.8,4.8-5.8C102.4,7.4,104.3,9.7,104.3,13
		z M96.6,13.2c0,2.4,1.2,4.2,3,4.2c1.7,0,3-1.8,3-4.2c0-1.8-0.8-4.2-2.9-4.2C97.5,8.9,96.6,11.1,96.6,13.2z"/>
	<path fill="#00458A" d="M106.3,16.6c0.5,0.4,1.4,0.8,2.3,0.8c1.3,0,1.9-0.7,1.9-1.6c0-0.9-0.5-1.5-1.8-2c-1.8-0.7-2.6-1.8-2.6-3.1
		c0-1.8,1.3-3.2,3.4-3.2c1,0,1.9,0.3,2.4,0.7l-0.4,1.4c-0.4-0.3-1.1-0.6-2-0.6c-1,0-1.6,0.7-1.6,1.5c0,0.9,0.6,1.3,1.9,1.8
		c1.7,0.7,2.6,1.7,2.6,3.3c0,1.9-1.3,3.3-3.6,3.3c-1.1,0-2.1-0.3-2.7-0.7L106.3,16.6z"/>
</g>
<g>
	<path fill="#00458A" d="M2.2,53.1V31.9H5l6.3,10.7c1.5,2.5,2.6,4.7,3.5,6.9l0.1,0c-0.2-2.8-0.3-5.4-0.3-8.7v-8.9H17v21.2h-2.6
		L8.2,42.3c-1.4-2.4-2.7-4.8-3.7-7.1l-0.1,0c0.1,2.7,0.2,5.2,0.2,8.8v9.1H2.2z"/>
	<path fill="#00458A" d="M34.2,45.3c0,5.6-3.6,8.1-7.1,8.1c-3.8,0-6.8-3-6.8-7.8c0-5.1,3.1-8.1,7-8.1C31.5,37.5,34.2,40.7,34.2,45.3
		z M23,45.5c0,3.3,1.8,5.9,4.3,5.9c2.5,0,4.3-2.5,4.3-5.9c0-2.6-1.2-5.9-4.2-5.9C24.3,39.6,23,42.6,23,45.5z"/>
	<path fill="#00458A" d="M43.7,42c0-1.6,0-2.9-0.1-4.1h2.3l0.1,2.5H46c0.8-1.4,2.1-2.8,4.5-2.8c1.9,0,3.4,1.3,4,3.1h0.1
		c0.4-0.9,1-1.5,1.6-2c0.8-0.7,1.8-1.1,3.1-1.1c1.9,0,4.7,1.3,4.7,6.6v9h-2.5v-8.6c0-2.9-1-4.7-3.1-4.7c-1.5,0-2.6,1.2-3,2.5
		c-0.1,0.4-0.2,0.9-0.2,1.4v9.4h-2.5V44c0-2.4-1-4.2-3-4.2c-1.6,0-2.8,1.4-3.2,2.8c-0.1,0.4-0.2,0.9-0.2,1.4v9.2h-2.5V42z"/>
	<path fill="#00458A" d="M76,53.1l-0.2-1.9h-0.1c-0.8,1.2-2.3,2.3-4.3,2.3c-2.9,0-4.3-2.2-4.3-4.4c0-3.7,3-5.7,8.5-5.7v-0.3
		c0-1.3-0.3-3.5-3.2-3.5c-1.3,0-2.7,0.4-3.7,1.1L68,38.8c1.2-0.8,2.9-1.4,4.7-1.4c4.3,0,5.4,3.2,5.4,6.2v5.7c0,1.3,0.1,2.6,0.2,3.7
		H76z M75.6,45.3c-2.8-0.1-6,0.5-6,3.4c0,1.8,1.1,2.6,2.4,2.6c1.8,0,3-1.3,3.4-2.6c0.1-0.3,0.1-0.6,0.1-0.9V45.3z"/>
	<path fill="#00458A" d="M82.2,42.8c0-2-0.1-3.5-0.1-5h2.3l0.1,2.6h0.1c1.1-1.9,2.7-3,5-3c3.4,0,6,3.1,6,7.7c0,5.5-3.1,8.2-6.4,8.2
		c-1.9,0-3.5-0.9-4.4-2.4h-0.1v8.3h-2.5V42.8z M84.8,46.9c0,0.4,0.1,0.8,0.1,1.1c0.5,1.9,2,3.2,3.9,3.2c2.7,0,4.3-2.4,4.3-5.9
		c0-3.1-1.5-5.7-4.2-5.7c-1.8,0-3.4,1.4-3.9,3.4c-0.1,0.3-0.2,0.8-0.2,1.1V46.9z"/>
	<path fill="#00458A" d="M106.8,53.1l-0.2-1.9h-0.1c-0.8,1.2-2.3,2.3-4.3,2.3c-2.9,0-4.3-2.2-4.3-4.4c0-3.7,3-5.7,8.5-5.7v-0.3
		c0-1.3-0.3-3.5-3.2-3.5c-1.3,0-2.7,0.4-3.7,1.1l-0.6-1.8c1.2-0.8,2.9-1.4,4.7-1.4c4.3,0,5.4,3.2,5.4,6.2v5.7c0,1.3,0.1,2.6,0.2,3.7
		H106.8z M106.4,45.3c-2.8-0.1-6,0.5-6,3.4c0,1.8,1.1,2.6,2.4,2.6c1.8,0,3-1.3,3.4-2.6c0.1-0.3,0.1-0.6,0.1-0.9V45.3z"/>
</g>
</svg>
