<?xml version="1.0" encoding="utf-8"?>
<!-- Generator: Adobe Illustrator 18.0.0, SVG Export Plug-In . SVG Version: 6.00 Build 0)  -->
<!DOCTYPE svg PUBLIC "-//W3C//DTD SVG 1.1//EN" "http://www.w3.org/Graphics/SVG/1.1/DTD/svg11.dtd">
<svg version="1.1" id="Capa_1" xmlns="http://www.w3.org/2000/svg" xmlns:xlink="http://www.w3.org/1999/xlink" x="0px" y="0px"
	 viewBox="0 0 44 44" enable-background="new 0 0 44 44" xml:space="preserve">
<g>
	<g>
		<g>
			<path fill="#00498E" d="M33.6,20.7H10.4c-0.7,0-1.3,0.6-1.3,1.3s0.6,1.3,1.3,1.3h23.1c0.7,0,1.3-0.6,1.3-1.3S34.3,20.7,33.6,20.7
				z"/>
			<path fill="#00498E" d="M10.4,15.6h23.1c0.7,0,1.3-0.6,1.3-1.3S34.2,13,33.5,13H10.4c-0.7,0-1.3,0.6-1.3,1.3S9.7,15.6,10.4,15.6z
				"/>
			<path fill="#00498E" d="M33.6,28.4H10.4c-0.7,0-1.3,0.6-1.3,1.3S9.7,31,10.4,31h23.1c0.7,0,1.3-0.6,1.3-1.3S34.3,28.4,33.6,28.4z
				"/>
		</g>
	</g>
</g>
<circle fill="none" stroke="#D5DBE0" stroke-width="2" stroke-miterlimit="10" enable-background="new    " cx="22" cy="22" r="19.8"/>
</svg>
